{"title":"Sightseers 2012 BRRip 720p x264 AAC - PRiSTiNE [P2PDL]","uid":8305397,"size":526167966,"categoryP":"video","categoryS":"hd___movies","magnet":"?xt=urn:btih:072f07e136c6b5f3ddf5472efad190596d255985&amp;dn=Sightseers+2012+BRRip+720p+x264+AAC+-+PRiSTiNE+%5BP2PDL%5D&amp;tr=udp%3A%2F%2Ftracker.openbittorrent.com%3A80&amp;tr=udp%3A%2F%2Fopen.demonii.com%3A1337&amp;tr=udp%3A%2F%2Ftracker.coppersurfer.tk%3A6969&amp;tr=udp%3A%2F%2Fexodus.desync.com%3A6969","seeders":1,"leechers":0,"uploader":"ValidusVyto","files":-1,"time":1364358362,"description":"_________________________  Visit us at _________________________\n  &lt;a href=&quot;\nhttp://p2pdl.com&quot; rel=&quot;nofollow&quot; target=&quot;_NEW&quot;&gt;\nhttp://p2pdl.com&lt;/a&gt;  ____________________________ &lt;a href=&quot; http://p2pdl.com&quot; rel=&quot;nofollow&quot; target=&quot;_NEW&quot;&gt; http://p2pdl.com&lt;/a&gt;\n\n\nSightseers 2012 BRRip 720p x264 AAC - PRiSTiNE\n\n\nGenre: Comedy \nPlot: Chris wants to show girlfriend Tina his world, but events soon conspire against the couple and\ntheir dream caravan holiday takes a very wrong turn..\nDirector: Ben Wheatley\nStars: Alice Lowe, Steve Oram, Eileen Davies.\nRated: N/a\n\n\nInfo: &lt;a href=&quot;\nhttp://www.imdb.com/title/tt2023690/&quot; rel=&quot;nofollow&quot; target=&quot;_NEW&quot;&gt;\nhttp://www.imdb.com/title/tt2023690/&lt;/a&gt;\n\nTrailer:\n\n\nGeneral\nFormat                         : MPEG-4\nFile size                      : 495 MiB\nDuration                       : 1h 28mn\nOverall bit rate               : 786 Kbps\nFormat                         : AVC\nBit rate                       : 699 Kbps\nWidth                          : 1 280 pixels\nHeight                         : 544 pixels\nDisplay aspect ratio           : 2.35:1\nFrame rate mode                : Constant\nFrame rate                     : 23.976 fps\nStream size                    : 440 MiB (89%)\nWriting library                : x264 core 129 r2245\nAudio Format                   : AAC\nAudio Bit rate                 : 84.0 Kbps\nChannel(s)                     : 2 channels\nChannel positions              : Front: L R\nSampling rate                  : 48.0 KHz\nStream size                    : 53.0 MiB (11%)\nLanguage                       : English\nSubtitle                       : Yes(English)\nSource                         : LIMITED.720p.BluRay.x264-GECKOS(Thanks)\n\nScreens:\n &lt;a href=&quot;\nhttp://i.imgbox.com/abpkrNkV.jpg&quot; rel=&quot;nofollow&quot; target=&quot;_NEW&quot;&gt;\nhttp://i.imgbox.com/abpkrNkV.jpg&lt;/a&gt; &lt;a href=&quot;\nhttp://i.imgbox.com/adl7nXZY.jpg&quot; rel=&quot;nofollow&quot; target=&quot;_NEW&quot;&gt;\nhttp://i.imgbox.com/adl7nXZY.jpg&lt;/a&gt; &lt;a href=&quot;\nhttp://i.imgbox.com/adyVKGVt.jpg&quot; rel=&quot;nofollow&quot; target=&quot;_NEW&quot;&gt;\nhttp://i.imgbox.com/adyVKGVt.jpg&lt;/a&gt; &lt;a href=&quot;\nhttp://i.imgbox.com/abrJFHPD.jpg&quot; rel=&quot;nofollow&quot; target=&quot;_NEW&quot;&gt;\nhttp://i.imgbox.com/abrJFHPD.jpg&lt;/a&gt; &lt;a href=&quot;\nhttp://i.imgbox.com/adyPdkex.jpg&quot; rel=&quot;nofollow&quot; target=&quot;_NEW&quot;&gt;\nhttp://i.imgbox.com/adyPdkex.jpg&lt;/a&gt;\n\n\n----------------------------------------------------------------------------------------------------\n\n\nRecommend to you to use latest version of VLC player. Install K-Lite Codec Pack or shark007 codecs\nin case of any kind of problem in playback (For non-VLC Media Player users). Alternatively, install\nCore AVC codecs, the fastest decoder that there is coupled with Community Center Codec Pack and play\non Windows Media Player Classic. Check sample to be sure.\nEnjoy!\n\nEncoder Notes: Encoder Notes: Looking For Early Access To Anything You Can Provide DVDScr, R5, DVDR, BluRay, Direct\nAudio, Music Releases and Seedboxes. We require dedicated servers, so as to do more and fast releases of movies.\nIf You Got anything to offer contact us at &quot;&lt;a class=&quot;__cf_email__&quot; href=&quot;/cdn-cgi/l/email-protection&quot; data-cfemail=&quot;7000021730180503185e131f1d&quot;&gt;[email&amp;#160;protected]&lt;/a&gt;&lt;script cf-hash='f9e31' type=&quot;text/javascript&quot;&gt;\n/* &lt;![CDATA[ */!function(){try{var t=&quot;currentScript&quot;in document?document.currentScript:function(){for(var t=document.getElementsByTagName(&quot;script&quot;),e=t.length;e--;)if(t[e].getAttribute(&quot;cf-hash&quot;))return t[e]}();if(t&amp;&amp;t.previousSibling){var e,r,n,i,c=t.previousSibling,a=c.getAttribute(&quot;data-cfemail&quot;);if(a){for(e=&quot;&quot;,r=parseInt(a.substr(0,2),16),n=2;a.length-n;n+=2)i=parseInt(a.substr(n,2),16)^r,e+=String.fromCharCode(i);e=document.createTextNode(e),c.parentNode.replaceChild(e,c)}}}catch(u){}}();/* ]]&gt; */&lt;/script&gt;&quot;.\n\nFan Page: www.fb.me/p2pdl","torrent":{"xt":"urn:btih:072f07e136c6b5f3ddf5472efad190596d255985","amp;dn":"Sightseers+2012+BRRip+720p+x264+AAC+-+PRiSTiNE+%5BP2PDL%5D","amp;tr":["udp%3A%2F%2Ftracker.openbittorrent.com%3A80","udp%3A%2F%2Fopen.demonii.com%3A1337","udp%3A%2F%2Ftracker.coppersurfer.tk%3A6969","udp%3A%2F%2Fexodus.desync.com%3A6969"],"infoHash":"072f07e136c6b5f3ddf5472efad190596d255985","infoHashBuffer":{"type":"Buffer","data":[7,47,7,225,54,198,181,243,221,245,71,46,250,209,144,89,109,37,89,133]},"announce":[],"urlList":[]}}